# Blender 3.5.1
# www.blender.org
o Table
v -0.850000 1.375000 1.850000
v -1.000000 1.625000 2.000000
v -0.850000 1.375000 -1.850000
v -1.000000 1.625000 -2.000000
v 0.850000 1.375000 1.850000
v 1.000000 1.625000 2.000000
v 0.850000 1.375000 -1.850000
v 1.000000 1.625000 -2.000000
v -1.000000 1.375000 -2.000000
v -1.000000 1.375000 2.000000
v 1.000000 1.375000 -2.000000
v 1.000000 1.375000 2.000000
v 0.000000 0.000000 0.000000
v 0.000000 0.000000 0.000000
v 0.000000 0.000000 0.000000
v 0.000000 0.000000 0.000000
v 0.000000 0.000000 0.000000
v 0.000000 0.000000 0.000000
v 0.000000 0.000000 0.000000
v 0.000000 0.000000 0.000000
v -0.850000 1.375000 1.572500
v 0.850000 1.375000 1.572500
v 0.850000 1.375000 -1.593313
v -0.850000 1.375000 -1.593313
v 0.583333 1.375000 -1.850000
v -0.583333 1.375000 -1.850000
v -0.583333 1.375000 1.850000
v 0.583333 1.375000 1.850000
v 0.583333 1.375000 1.572500
v -0.583333 1.375000 1.572500
v 0.583333 1.375000 -1.593313
v -0.583333 1.375000 -1.593313
v -0.850000 -0.125000 1.572500
v -0.850000 -0.125000 1.850000
v -0.583333 -0.125000 -1.850000
v -0.850000 -0.125000 -1.850000
v 0.850000 -0.125000 -1.593313
v 0.850000 -0.125000 -1.850000
v 0.583333 -0.125000 1.850000
v 0.850000 -0.125000 1.850000
v 0.850000 -0.125000 1.572500
v -0.583333 -0.125000 1.572500
v -0.850000 -0.125000 -1.593313
v -0.583333 -0.125000 -1.593313
v 0.583333 -0.125000 -1.850000
v -0.583333 -0.125000 1.850000
v 0.583333 -0.125000 1.572500
v 0.583333 -0.125000 -1.593313
vn -1.0000 -0.0000 -0.0000
vn -0.0000 -1.0000 -0.0000
vn -0.0000 1.0000 -0.0000
vn 1.0000 -0.0000 -0.0000
vn -0.0000 -0.0000 1.0000
vn -0.0000 -0.0000 -1.0000
vt 0.143750 0.740625
vt 0.625000 0.000000
vt 0.875000 0.750000
vt 0.625000 1.000000
vt 0.143750 0.509375
vt 0.625000 0.250000
vt 0.875000 0.500000
vt 0.356250 0.740625
vt 0.625000 0.750000
vt 0.356250 0.509375
vt 0.625000 0.500000
vt 0.375000 0.250000
vt 0.125000 0.500000
vt 0.375000 0.000000
vt 0.375000 1.000000
vt 0.125000 0.750000
vt 0.375000 0.500000
vt 0.375000 0.750000
vt 0.375000 1.000000
vt 0.125000 0.750000
vt 0.375000 0.000000
vt 0.625000 0.000000
vt 0.625000 1.000000
vt 0.875000 0.750000
vt 0.375000 0.250000
vt 0.125000 0.500000
vt 0.625000 0.250000
vt 0.875000 0.500000
vt 0.375000 0.750000
vt 0.625000 0.750000
vt 0.375000 0.500000
vt 0.625000 0.500000
vt 0.143750 0.723281
vt 0.356250 0.723281
vt 0.356250 0.525418
vt 0.143750 0.525418
vt 0.285417 0.509375
vt 0.214583 0.509375
vt 0.214583 0.740625
vt 0.285417 0.740625
vt 0.285417 0.723281
vt 0.214583 0.723281
vt 0.285417 0.525418
vt 0.214583 0.525418
vt 0.143750 0.723281
vt 0.143750 0.740625
vt 0.214583 0.509375
vt 0.143750 0.509375
vt 0.356250 0.525418
vt 0.356250 0.509375
vt 0.285417 0.740625
vt 0.356250 0.740625
vt 0.356250 0.723281
vt 0.214583 0.723281
vt 0.143750 0.525418
vt 0.214583 0.525418
vt 0.285417 0.509375
vt 0.214583 0.740625
vt 0.285417 0.723281
vt 0.285417 0.525418
s 0
f 29/41/1 39/51/1 28/40/1
f 26/38/2 9/13/2 25/37/2
f 13/21/3 16/27/3 15/25/3
f 15/25/3 20/32/3 19/31/3
f 19/31/3 18/30/3 17/29/3
f 17/29/3 14/23/3 13/19/3
f 15/26/3 17/29/3 13/20/3
f 20/32/3 14/24/3 18/30/3
f 23/35/2 11/17/2 22/34/2
f 12/18/4 8/11/4 6/9/4
f 4/6/1 10/14/1 2/2/1
f 27/39/4 42/54/4 30/42/4
f 28/40/5 40/52/5 5/8/5
f 28/40/2 10/16/2 27/39/2
f 31/43/2 30/42/2 32/44/2
f 6/9/3 4/7/3 2/3/3
f 5/8/4 41/53/4 22/34/4
f 2/4/5 12/18/5 6/9/5
f 8/11/6 9/12/6 4/6/6
f 41/53/2 39/51/2 47/59/2
f 38/50/2 48/60/2 45/57/2
f 35/47/2 43/55/2 36/48/2
f 42/54/2 34/46/2 33/45/2
f 22/34/6 47/59/6 29/41/6
f 30/42/6 33/45/6 21/33/6
f 32/44/4 35/47/4 26/38/4
f 21/33/1 34/46/1 1/1/1
f 3/5/1 43/55/1 24/36/1
f 7/10/6 45/57/6 25/37/6
f 25/37/1 48/60/1 31/43/1
f 31/43/5 37/49/5 23/35/5
f 26/38/6 36/48/6 3/5/6
f 23/35/4 38/50/4 7/10/4
f 24/36/5 44/56/5 32/44/5
f 1/1/5 46/58/5 27/39/5
f 24/36/2 21/33/2 9/13/2
f 29/41/1 47/59/1 39/51/1
f 26/38/2 3/5/2 9/13/2
f 9/13/2 11/17/2 7/10/2
f 25/37/2 31/43/2 32/44/2
f 9/13/2 7/10/2 25/37/2
f 25/37/2 32/44/2 26/38/2
f 13/21/3 14/22/3 16/27/3
f 15/25/3 16/27/3 20/32/3
f 19/31/3 20/32/3 18/30/3
f 17/29/3 18/30/3 14/23/3
f 15/26/3 19/31/3 17/29/3
f 20/32/3 16/28/3 14/24/3
f 29/41/2 31/43/2 23/35/2
f 23/35/2 7/10/2 11/17/2
f 11/17/2 12/18/2 5/8/2
f 22/34/2 29/41/2 23/35/2
f 11/17/2 5/8/2 22/34/2
f 12/18/4 11/17/4 8/11/4
f 4/6/1 9/12/1 10/14/1
f 27/39/4 46/58/4 42/54/4
f 28/40/5 39/51/5 40/52/5
f 27/39/2 30/42/2 29/41/2
f 28/40/2 5/8/2 12/18/2
f 27/39/2 29/41/2 28/40/2
f 10/16/2 1/1/2 27/39/2
f 28/40/2 12/18/2 10/16/2
f 31/43/2 29/41/2 30/42/2
f 6/9/3 8/11/3 4/7/3
f 5/8/4 40/52/4 41/53/4
f 2/4/5 10/15/5 12/18/5
f 8/11/6 11/17/6 9/12/6
f 41/53/2 40/52/2 39/51/2
f 38/50/2 37/49/2 48/60/2
f 35/47/2 44/56/2 43/55/2
f 42/54/2 46/58/2 34/46/2
f 22/34/6 41/53/6 47/59/6
f 30/42/6 42/54/6 33/45/6
f 32/44/4 44/56/4 35/47/4
f 21/33/1 33/45/1 34/46/1
f 3/5/1 36/48/1 43/55/1
f 7/10/6 38/50/6 45/57/6
f 25/37/1 45/57/1 48/60/1
f 31/43/5 48/60/5 37/49/5
f 26/38/6 35/47/6 36/48/6
f 23/35/4 37/49/4 38/50/4
f 24/36/5 43/55/5 44/56/5
f 1/1/5 34/46/5 46/58/5
f 24/36/2 32/44/2 30/42/2
f 21/33/2 1/1/2 10/16/2
f 24/36/2 30/42/2 21/33/2
f 9/13/2 3/5/2 24/36/2
f 21/33/2 10/16/2 9/13/2
